# xmcd CD database file
#
# Track frame offsets:
#	182
#	16340
#	34290
#	54030
#	72410
#
# Disc length: 1278 seconds
#
# Revision: 2
# Processed by: cddbd v1.5PL3 Copyright (c) Steve Scherf et al.
# Submitted via: CDex 1.51
#
DISCID=3904fc05
DTITLE=Backstreet Boys - Get Down (You're the one for me)
DYEAR=1996
DGENRE=Pop
TTITLE0=Lp (edit) No Rap
TTITLE1=DEZIGN Radio 1
TTITLE2=CL Vocal Journey Radio Edit
TTITLE3=Markus Plastik Vocal Radio Edit
TTITLE4=DEZIGN Dub Radio Edit
EXTD=YEAR: 1996
EXTT0=
EXTT1=
EXTT2=
EXTT3=
EXTT4=
PLAYORDER=
